<svg xmlns="http://www.w3.org/2000/svg" xmlns:xlink="http://www.w3.org/1999/xlink" width="494" zoomAndPan="magnify" viewBox="0 0 370.5 310.499991" height="414" preserveAspectRatio="xMidYMid meet" version="1.0"><defs><clipPath id="454a1cdc28"><path d="M 3 0 L 366 0 L 366 310 L 3 310 Z M 3 0 " clip-rule="nonzero"/></clipPath><clipPath id="108bfe8cca"><path d="M 346.933594 154.898438 L 355.042969 146.324219 C 369.558594 130.96875 369.558594 105.988281 355.042969 90.636719 L 280.722656 12.046875 C 273.519531 4.429688 263.898438 0.234375 253.636719 0.238281 C 243.375 0.238281 233.757812 4.433594 226.558594 12.050781 L 219.207031 19.824219 L 211.851562 12.046875 C 204.652344 4.433594 195.03125 0.234375 184.769531 0.234375 C 174.507812 0.234375 164.890625 4.429688 157.6875 12.046875 L 150.328125 19.832031 L 142.957031 12.039062 C 135.753906 4.429688 126.140625 0.234375 115.878906 0.234375 C 115.875 0.234375 115.875 0.234375 115.875 0.234375 C 105.613281 0.238281 95.992188 4.433594 88.792969 12.046875 L 14.492188 90.636719 C -0.0234375 105.988281 -0.0195312 130.96875 14.496094 146.320312 L 22.605469 154.898438 L 14.496094 163.476562 C -0.0234375 178.828125 -0.0234375 203.804688 14.492188 219.160156 L 88.792969 297.746094 C 95.996094 305.367188 105.613281 309.5625 115.875 309.5625 C 115.875 309.5625 115.875 309.5625 115.878906 309.5625 C 126.136719 309.5625 135.753906 305.371094 142.957031 297.753906 L 150.324219 289.964844 L 157.6875 297.75 C 164.890625 305.367188 174.507812 309.5625 184.769531 309.5625 C 195.03125 309.5625 204.648438 305.367188 211.851562 297.75 L 219.203125 289.972656 L 226.554688 297.75 C 233.757812 305.367188 243.375 309.558594 253.636719 309.558594 C 253.636719 309.558594 253.636719 309.558594 253.640625 309.558594 C 263.898438 309.558594 273.519531 305.367188 280.71875 297.75 L 355.042969 219.160156 C 369.558594 203.808594 369.558594 178.828125 355.042969 163.472656 Z M 157.6875 253.414062 L 150.328125 261.195312 L 49.8125 154.898438 L 100.070312 101.75 L 150.324219 48.601562 L 157.683594 56.382812 C 158.707031 57.46875 159.792969 58.460938 160.914062 59.402344 C 162.742188 60.945312 164.675781 62.316406 166.714844 63.464844 C 166.722656 63.46875 166.726562 63.472656 166.730469 63.472656 C 168.917969 64.707031 171.210938 65.707031 173.589844 66.464844 C 173.617188 66.472656 173.648438 66.476562 173.679688 66.488281 C 176.035156 67.230469 178.464844 67.742188 180.949219 67.996094 C 181.585938 68.0625 182.234375 68.0625 182.878906 68.09375 C 183.503906 68.125 184.128906 68.191406 184.761719 68.191406 C 184.761719 68.191406 184.765625 68.191406 184.765625 68.191406 C 187.332031 68.191406 189.855469 67.929688 192.3125 67.417969 C 199.683594 65.878906 206.445312 62.089844 211.847656 56.378906 L 218.640625 49.191406 L 219.203125 48.597656 L 319.722656 154.902344 L 219.207031 261.203125 L 211.847656 253.421875 C 204.644531 245.804688 195.027344 241.609375 184.765625 241.609375 C 184.765625 241.609375 184.765625 241.609375 184.761719 241.609375 C 174.503906 241.609375 164.886719 245.800781 157.6875 253.414062 Z M 240.917969 25.632812 C 244.347656 22.003906 248.867188 20.003906 253.640625 20.003906 C 258.410156 20.003906 262.929688 22 266.359375 25.628906 L 340.683594 104.21875 C 348.117188 112.082031 348.117188 124.878906 340.683594 132.742188 L 333.332031 140.511719 L 232.8125 34.210938 Z M 172.050781 25.628906 C 175.480469 22 180 20.003906 184.769531 20.003906 C 189.542969 20.003906 194.058594 22 197.492188 25.625 L 205.605469 34.207031 L 197.484375 42.796875 C 195.34375 45.0625 192.773438 46.695312 189.984375 47.597656 C 188.3125 48.136719 186.558594 48.421875 184.769531 48.421875 C 179.996094 48.421875 175.480469 46.425781 172.050781 42.800781 L 163.933594 34.214844 Z M 28.859375 132.738281 C 21.421875 124.875 21.421875 112.078125 28.855469 104.214844 L 103.15625 25.628906 C 106.585938 22 111.105469 20.003906 115.875 20.003906 C 120.648438 20.003906 125.164062 22 128.59375 25.625 L 136.722656 34.21875 L 86.46875 87.367188 L 36.210938 140.511719 Z M 115.878906 289.792969 C 111.105469 289.792969 106.585938 287.796875 103.15625 284.167969 L 28.855469 205.582031 C 21.417969 197.714844 21.417969 184.921875 28.855469 177.058594 L 36.207031 169.285156 L 136.722656 275.578125 L 128.59375 284.171875 C 125.167969 287.796875 120.648438 289.792969 115.878906 289.792969 Z M 184.769531 289.792969 C 180 289.792969 175.480469 287.796875 172.050781 284.167969 L 163.929688 275.578125 L 172.046875 266.996094 C 175.476562 263.371094 179.996094 261.375 184.765625 261.375 C 189.539062 261.375 194.054688 263.371094 197.488281 267 L 205.605469 275.585938 L 197.492188 284.167969 C 194.058594 287.796875 189.542969 289.792969 184.769531 289.792969 Z M 340.679688 205.578125 L 266.359375 284.167969 C 262.929688 287.796875 258.410156 289.792969 253.636719 289.792969 C 248.867188 289.792969 244.347656 287.792969 240.917969 284.167969 L 232.808594 275.585938 L 333.332031 169.285156 L 340.679688 177.054688 C 348.117188 184.921875 348.117188 197.71875 340.679688 205.578125 Z M 340.679688 205.578125 " clip-rule="nonzero"/></clipPath></defs><g clip-path="url(#454a1cdc28)"><g clip-path="url(#108bfe8cca)"><path fill="#ffffff" d="M 0.046875 0.234375 L 0.046875 309.5625 L 369.558594 309.5625 L 369.558594 0.234375 Z M 0.046875 0.234375 " fill-opacity="1" fill-rule="nonzero"/><path fill="#ffffff" d="M 0.046875 0.234375 L 0.046875 309.5625 L 369.558594 309.5625 L 369.558594 0.234375 Z M 0.046875 0.234375 " fill-opacity="1" fill-rule="nonzero"/><path fill="#000000" d="M 0.046875 0.234375 L 0.046875 309.5625 L 369.558594 309.5625 L 369.558594 0.234375 Z M 0.046875 0.234375 " fill-opacity="1" fill-rule="nonzero"/></g></g></svg>